<svg xmlns="http://www.w3.org/2000/svg" width="42" height="42"><path d="M25.4 6.7l3.1 3.2 2.3-2.4V6c.2-1 .6-1.9 1.3-2.6.7-.8 1.5-1.2 2.4-1.3h.2c.3 0 .5-.1.7-.1 1.3 0 2.4.5 3.3 1.4.9.9 1.4 2 1.4 3.3v1.1c-.2.8-.6 1.5-1.3 2.1-.7.7-1.4 1.1-2.3 1.3-.3.1-.7.1-1 .1-.2 0-.5 0-.7-.1l-2.4 2.4 3 2.9-14.7-5 9.9 9.9-14.8-5 9.9 10-14.8-5.1 2.4 2.4 5.4 5.4 2.1 2.1m7.7-21.4l3.8 3.8M18.5 29.1l-7.4 7.4c-.2.8-.6 1.4-1.3 2.1-.9.9-2 1.4-3.2 1.4-1.3 0-2.4-.5-3.3-1.4-.9-.9-1.4-2-1.4-3.3 0-1.2.5-2.3 1.4-3.2.8-.7 1.7-1.2 2.7-1.3l7.1-7.1" fill="none" stroke="#666" stroke-width="2" stroke-linecap="round" stroke-linejoin="round"/><path d="M37 6.7c0 .4-.2.7-.5 1-.3.3-.6.5-1 .5s-.8-.2-1.1-.5c-.3-.3-.5-.6-.5-1 0-.5.2-.8.5-1.1.3-.3.7-.5 1.1-.5.4 0 .8.2 1 .5.3.3.5.7.5 1.1zM8.1 35.3c0 .4-.2.8-.5 1.1-.3.3-.6.5-1 .5s-.8-.2-1.1-.5c-.3-.3-.5-.6-.5-1.1 0-.4.2-.8.5-1 .3-.3.7-.5 1.1-.5.4 0 .7.2 1 .5.3.3.5.6.5 1z" fill="none" stroke="#666" stroke-linecap="round" stroke-linejoin="round"/></svg>