<svg xmlns="http://www.w3.org/2000/svg" width="48" height="48"><path fill="#666" d="M28.902 7.133c.62.284.955.962.801 1.628l-2.67 11.663h6.563a1.438 1.438 0 011.145 2.307l-13.8 18.215a1.433 1.433 0 01-1.749.437 1.44 1.44 0 01-.8-1.618l2.604-11.671h-6.095a1.44 1.44 0 01-1.158-2.291l13.4-18.216a1.432 1.432 0 011.759-.454zM37.91 8.92a5.278 5.278 0 015.272 5.273v.479h.463A3.36 3.36 0 0147 18.027v10.546a3.36 3.36 0 01-3.355 3.356h-.463v.479a5.278 5.278 0 01-5.272 5.273h-9.108a1.439 1.439 0 010-2.876h9.108a2.4 2.4 0 002.396-2.397V30.49a1.44 1.44 0 011.438-1.438h1.9a.48.48 0 00.48-.479V18.027a.48.48 0 00-.48-.479h-1.9a1.439 1.439 0 01-1.438-1.438v-1.917a2.4 2.4 0 00-2.396-2.397h-5.273a1.439 1.439 0 010-2.876h5.273zm-18.695 0a1.439 1.439 0 010 2.876H6.273a2.4 2.4 0 00-2.397 2.397v18.215a2.4 2.4 0 002.397 2.397h7.19a1.439 1.439 0 010 2.876h-7.19A5.277 5.277 0 011 32.408V14.193A5.277 5.277 0 016.273 8.92h12.942zm6.136 5.957l-7.606 10.34h5.046a1.439 1.439 0 011.402 1.751l-1.557 6.978L30.7 23.3h-5.474c-.439 0-.851-.2-1.123-.542a1.435 1.435 0 01-.278-1.218l1.526-6.663z"/></svg>