<svg xmlns="http://www.w3.org/2000/svg" width="42" height="42"><path d="M20.3 31.3c.7-.3 1.4-.6 2-1 .5-.4 1.1-.8 1.5-1.3l.4-.4-5.8-5.4c2.6 3.2 3.3 5.9 1.9 8.1m-5.4-19.8l1.3 7.3c0-3.6 1.1-6 3.3-7-.7-.2-1.5-.4-2.3-.4h-.7c-.5-.1-1 0-1.6.1M8.7 28.3l.6.6c.3.3.5.6.8.8.6.5 1.2.9 1.9 1.2l3.7-7.4c-2.4 3.3-4.7 4.9-7 4.8m5.7-7.8c-3.9-.5-6-2-6.5-4.3-.3.5-.6 1-.8 1.5-.4.8-.6 1.8-.7 2.8h8z" fill="#666"/><path d="M17.3 11.4l.3-4.2h-1c-2.4 0-4.5.5-6.4 1.4l2.1 3.7c.9-.4 1.8-.7 2.7-.8.5-.1 1.1-.1 1.6-.1.2-.1.4 0 .7 0 .8 0 1.6.2 2.3.4 1.2.4 2.3.9 3.3 1.8.2.2.5.5.8.7l3.8-2.2c-.2-.2-.4-.5-.7-.7-.5-.5-1-.9-1.5-1.3-2.3-1.7-4.9-2.7-7.8-2.9m10 4.9l9.7-5.8h.1c.3-.2.7-.4 1.1-.4.4 0 .8.1 1.1.4.3.3.5.7.5 1.2 0 .3-.1.5-.2.8l-.3.3c-.2.1-.3.2-.5.4l-9.3 6.5c.5 1.1.9 2.4 1.1 3.7.2.8.2 1.7.2 2.6 0 2.3-.5 4.4-1.4 6.2-.7 1.4-1.7 2.8-2.9 4-.8.8-1.6 1.5-2.5 2-2.3 1.5-4.9 2.3-7.8 2.3-.7 0-1.4 0-2-.1-2.7-.3-5.1-1.4-7.1-3.2-.4-.3-.8-.7-1.1-1-2.2-2.1-3.5-4.6-4-7.4-.1-1-.2-2-.2-3 0-2 .4-3.9 1.1-5.6.7-1.7 1.7-3.2 3.2-4.7 1.2-1.1 2.5-2.1 3.8-2.8m4.3 12c.1-.4.3-.7.6-.9.2-.2.5-.4.9-.5l.5-.2-1.3-7.3m-7.3 4.6c.4-.6.9-1.2 1.4-1.8.9-.9 1.9-1.6 2.9-2.1m3.6 11.3c-.3-.2-.5-.3-.7-.5-.5-.5-.7-1.1-.7-1.7 0-.3 0-.6.1-.8h-8v1.2c0 .7.1 1.3.2 2 .3 1.7 1.1 3.3 2.2 4.6 2.2 0 4.5-1.6 6.9-4.8.3.1.7.2 1 .2.7 0 1.2-.2 1.7-.6l7.8-5.4 3.6-2.4m-15.4 5.1c-3.9-.5-6-2-6.5-4.3-.3.5-.6 1-.8 1.5-.4.8-.6 1.8-.7 2.8M3.1 16L7 17.8m-4.7 6.7l4.2-.8m3.6 6.1c-.3-.2-.5-.5-.8-.8l-.6-.6m5.8 7.7l.6-4.2c-1.1-.2-2.1-.5-3.1-.9-.7-.3-1.3-.7-1.9-1.2L7.4 33m4.6-2l3.7-7.4m10.5-5.8c.2.7.4 1.3.5 2l4.2-.8m-4.2.8c0 .2.1.5.1.7v1.2c0 1.6-.3 3.1-.9 4.4l3.8 1.7m-9.4 3.5c-1.2.4-2.4.7-3.8.7-.5 0-1 0-1.4-.1m7.2-1.6c-.6.4-1.3.8-2 1.1 1.3-2.2.7-4.9-1.9-8.1l5.8 5.4c.7-.8 1.3-1.6 1.7-2.4m-1.7 2.3l-.4.4c-.5.5-1 .9-1.5 1.3l2 3.7m-4.7-22.2c-2.3 1-3.4 3.4-3.4 7l7.5-4.5" fill="none" stroke="#666" stroke-width="2" stroke-linecap="round" stroke-linejoin="round"/></svg>