<svg xmlns="http://www.w3.org/2000/svg" width="42" height="42"><path d="M14.1 11.5c-.7 1.7-1.2 3.6-1.6 5.7l2.2 1.4c2.2-2.4 4.5-3.1 7.1-2.1.4-2.6.4-5.3 0-8.1h.5c.8 0 1.6-.3 2.1-.9.7-.6 1-1.3 1-2.1 0-.9-.3-1.6-1-2.2-.6-.6-1.3-1-2.1-1-.7 0-1.2.2-1.7.5-.2.2-.3.3-.5.4-2 1.7-3.7 3.8-5 6.4-.4.5-.8 1.2-1 2h-6v2.9l4.3 2.7m9.4-.8c.5.2 1.1.5 1.6.9.3.2.6.3.8.5 2.4-2.6 5.2-4.2 8.3-4.9l-.6-.6c-2.9-2.4-6.3-3.8-10.1-4m2.4 9.6c1.9 1.5 2.2 3.4.9 5.7l-2.7 4.4c-2.1 2.7-3.9 3.6-5.3 2.7H17l-2.3 3.8 9.3 5.7 2.4-3.8c-1.2-1.4-1.1-3.7.4-6.7l6.5-10.3c1.3-2.3 1.1-4.4-.6-6.2" fill="none" stroke="#666" stroke-width="2" stroke-linecap="round" stroke-linejoin="round"/></svg>