<svg xmlns="http://www.w3.org/2000/svg" width="42" height="42"><path d="M40 21c0 5.2-1.9 9.7-5.6 13.4C30.7 38.1 26.2 40 21 40c-5.2 0-9.7-1.9-13.4-5.6C3.9 30.7 2 26.2 2 21c0-5.2 1.9-9.7 5.6-13.4C11.3 3.9 15.8 2 21 2c5.2 0 9.7 1.9 13.4 5.6C38.1 11.3 40 15.8 40 21zm-4.3 0c0 4-1.4 7.5-4.3 10.3-2.8 2.9-6.3 4.3-10.3 4.3-4 0-7.4-1.4-10.3-4.3C7.9 28.5 6.4 25 6.4 21c0-4 1.4-7.4 4.3-10.3C13.6 7.9 17 6.4 21 6.4c4 0 7.5 1.4 10.3 4.3 2.9 2.9 4.4 6.3 4.4 10.3z" fill="none" stroke="#666" stroke-width="2" stroke-linecap="round" stroke-linejoin="round"/></svg>