<svg xmlns="http://www.w3.org/2000/svg" width="42" height="42"><path d="M32.2 21c0 3.1-1.1 5.7-3.3 7.9-2.2 2.2-4.8 3.3-7.9 3.3-3.1 0-5.7-1.1-7.9-3.3-2.2-2.2-3.3-4.8-3.3-7.9 0-3.1 1.1-5.7 3.3-7.9 2.2-2.2 4.8-3.3 7.9-3.3 3.1 0 5.7 1.1 7.9 3.3 2.2 2.2 3.3 4.8 3.3 7.9zm7.8 0c0 5.2-1.9 9.7-5.6 13.4C30.7 38.1 26.2 40 21 40s-9.7-1.9-13.4-5.6C3.9 30.7 2 26.2 2 21c0-5.2 1.9-9.7 5.6-13.4S15.8 2 21 2s9.7 1.9 13.4 5.6S40 15.8 40 21zm-16.6 0c0 .7-.2 1.2-.7 1.7-.5.5-1.1.7-1.7.7-.7 0-1.2-.2-1.7-.7-.5-.5-.7-1.1-.7-1.7 0-.7.2-1.2.7-1.7.5-.5 1.1-.7 1.7-.7.7 0 1.2.2 1.7.7.5.5.7 1 .7 1.7zm3 0c0 1.5-.5 2.8-1.6 3.8-1.1 1.1-2.3 1.6-3.8 1.6s-2.8-.5-3.8-1.6c-1.1-1.1-1.6-2.3-1.6-3.8s.5-2.8 1.6-3.8c1.1-1.1 2.3-1.6 3.8-1.6s2.8.5 3.8 1.6c1.1 1 1.6 2.3 1.6 3.8z" fill="none" stroke="#666" stroke-linecap="round" stroke-linejoin="round"/><path d="M14.8 4.8c.2 0 .3.1.5.2.1.1.2.3.2.5s-.1.3-.2.5h-.5c-.2 0-.3-.1-.5-.2s-.2-.3-.2-.5.1-.3.2-.5h.5zm-1.9 2.3c.2 0 .3.1.4.2.1.1.2.3.2.5s-.1.3-.2.5c-.1.1-.3.2-.4.2-.2 0-.3-.1-.5-.2-.1-.1-.2-.3-.2-.5s.1-.3.2-.5c.2-.1.3-.2.5-.2zm-1.2 2.4c.2 0 .3.1.5.2.1.1.2.3.2.5s-.1.3-.2.5c-.1.1-.3.2-.5.2s-.3-.1-.5-.2c-.1-.1-.2-.3-.2-.5s.1-.3.2-.5c.2-.1.3-.2.5-.2zm-.9 2.6c.2 0 .3.1.5.2.1.1.2.3.2.5s-.1.3-.2.5c-.1.1-.3.2-.5.2s-.3-.1-.5-.2c-.1-.1-.2-.3-.2-.5s.1-.3.2-.5c.2-.1.3-.2.5-.2zM28 5c.1.1.2.3.2.5s-.1.3-.2.5c-.1.1-.3.2-.5.2s-.3-.1-.5-.2c-.1-.1-.2-.3-.2-.5s.1-.3.2-.5c.1-.1.3-.2.5-.2s.4.1.5.2zm-2.9.3c.1.1.2.3.2.5s-.1.3-.2.5c-.2.1-.3.2-.5.2s-.3-.1-.4-.2c-.2-.2-.2-.3-.3-.5 0-.2.1-.3.2-.5.2-.1.3-.2.5-.2.2.1.3.1.5.2zM20 7.4c.1.1.2.3.2.5s-.1.3-.2.5c-.1.1-.3.2-.5.2s-.3-.1-.5-.2v-.5c0-.2.1-.3.2-.5.1-.1.3-.2.5-.2 0 0 .2.1.3.2zm2.5-1.1c.1.1.2.3.2.5s-.1.3-.2.5c-.1.1-.3.2-.5.2s-.3-.1-.5-.2c-.2-.2-.2-.3-.2-.5s0-.3.2-.5c.3-.2.4-.3.6-.3.2 0 .3.1.4.3zM5.1 14c.1-.1.3-.2.5-.2s.3.1.5.2c.1.2.2.3.2.5s-.1.3-.2.4c-.1.2-.3.2-.5.2s-.3-.1-.5-.2c-.1-.2-.2-.3-.2-.5 0-.1.1-.3.2-.4zm.3 3c.1-.1.3-.2.5-.2s.3.1.5.2c.1.2.2.3.2.5s-.1.3-.2.5c-.1.1-.3.2-.5.2s-.3-.1-.5-.2c-.1-.1-.2-.3-.2-.5.1-.2.1-.4.2-.5zm.9 2.5c.1-.1.3-.2.5-.2s.3.1.5.2c.1.1.2.3.2.5s-.1.3-.2.5c-.1.1-.3.2-.5.2s-.3-.1-.5-.2c-.1-.1-.2-.3-.2-.5s.1-.4.2-.5zm1.3 2.4c.1-.1.3-.1.5-.1s.3.1.4.2c.1.1.2.3.2.5s0 .3-.1.5c-.3 0-.4.1-.6.1-.2 0-.3-.1-.5-.2s-.2-.3-.2-.5c.1-.1.1-.3.3-.5zm-2.8 5.4c0-.2.1-.3.2-.5.1-.1.3-.2.5-.2s.3.1.5.2c.1.1.2.3.2.5s-.1.4-.2.5c-.2.1-.3.2-.5.2s-.3-.1-.5-.2c-.1-.1-.2-.3-.2-.5zm2.4 1.9c0-.2.1-.3.2-.5.1-.1.3-.2.5-.2s.3.1.5.2c.1.1.2.3.2.5s-.1.3-.2.5c-.1.1-.3.2-.5.2s-.3-.1-.5-.2c-.1-.2-.2-.3-.2-.5zm17-9.2c0 .2.1.3.2.5.1.1.3.2.5.2s.3-.1.5-.2c.1-.2.2-.3.2-.5s-.1-.3-.2-.5-.3-.2-.5-.2-.3.1-.5.2-.2.3-.2.5zm-2.6-2.9c0 .2-.1.3-.2.5-.1.1-.3.2-.5.2s-.3-.1-.5-.2c-.1-.1-.2-.3-.2-.5s.1-.3.2-.5c.1-.1.3-.2.5-.2s.3.1.5.2c.2.2.2.3.2.5zm-2.2 7c0 .2-.1.3-.2.5s-.3.2-.5.2-.3-.1-.5-.2c-.1-.1-.2-.3-.2-.5s.1-.3.2-.5c.1-.1.3-.2.5-.2s.3.1.5.2c.1.2.2.4.2.5zm3.4 0c0 .2.1.3.2.5s.3.2.5.2.3-.1.5-.2c.1-.1.2-.3.2-.5s-.1-.3-.2-.5c-.1-.1-.3-.2-.5-.2s-.3.1-.5.2c-.1.2-.2.4-.2.5zM17.9 20c0 .2-.1.3-.2.5-.1.1-.3.2-.5.2s-.3-.1-.5-.2c-.1-.2-.2-.3-.2-.5s.1-.3.2-.5.3-.2.5-.2.3.1.5.2c.1.1.2.3.2.5zm-5.6 11.2c0-.2.1-.3.2-.5.1-.1.3-.2.5-.2s.3.1.5.2c.1.1.2.3.2.4 0 .2-.1.3-.2.5-.1.1-.3.2-.5.2s-.3-.1-.5-.2c-.2 0-.2-.2-.2-.4zm-2.7-.8c0-.2.1-.4.2-.5.1-.2.3-.2.5-.2s.3.1.5.2c.1.1.2.3.2.4 0 .2-.1.4-.2.5-.1.1-.3.2-.5.2s-.3-.1-.5-.2c-.1-.1-.2-.3-.2-.4zm7.6 6.1c-.2-.1-.2-.2-.2-.4s.1-.3.2-.5c.2-.2.3-.2.5-.2s.3.1.5.2c.1.1.2.3.2.5s-.1.3-.2.5c-.1.1-.3.2-.5.2-.3-.1-.4-.1-.5-.3zm-3 .4c-.1-.1-.2-.3-.2-.4 0-.2.1-.3.2-.5.2-.1.3-.2.5-.2s.3.1.4.2c.2.1.2.3.2.4 0 .2-.1.4-.2.5-.1.1-.3.2-.5.2-.1 0-.3-.1-.4-.2zm8-2.5c-.1-.1-.2-.2-.2-.4s.1-.3.2-.5c.1-.1.3-.2.5-.2s.3.1.5.2c.1.1.2.3.2.5s-.1.3-.2.5c-.1.1-.3.2-.5.2-.3-.1-.4-.1-.5-.3zm-2.5 1.3c-.1-.1-.2-.3-.2-.5s.1-.3.2-.5c.1-.1.3-.2.5-.2s.3.1.5.2c.1.1.2.3.2.5s-.1.3-.2.5c-.1.1-.3.2-.5.2-.2-.1-.4-.1-.5-.2zm7.8 1.4c-.2 0-.3-.1-.5-.2-.1-.1-.2-.3-.2-.5s.1-.3.2-.5c.1-.1.3-.2.5-.2s.3.1.5.2c.1.1.2.3.2.5s-.1.3-.2.5c-.2.1-.4.2-.5.2zm5-25.6c0 .2-.1.3-.2.5-.1.1-.3.2-.5.2s-.3-.1-.5-.2c-.1-.1-.2-.3-.2-.5s.1-.3.2-.5c.1-.1.3-.2.5-.2s.3.1.5.2c.1.2.2.4.2.5zm-2.6-.9c0 .2-.1.3-.2.5-.1.1-.3.2-.5.2s-.3-.1-.5-.2c-.1-.1-.2-.3-.2-.5s.1-.3.2-.5c.1-.1.3-.2.5-.2s.3.1.5.2c.1.2.2.4.2.5zm5 2.1c0 .2-.1.3-.2.5-.1.1-.3.2-.5.2s-.3-.1-.5-.2c-.1-.1-.2-.3-.2-.5s.1-.3.2-.5c.1-.1.3-.2.5-.2s.3.1.5.2c.1.2.2.3.2.5zm2.3 1.9c0 .2-.1.3-.2.5-.1.1-.3.2-.5.2s-.3-.1-.5-.2v-.5c0-.2.1-.3.2-.5.1-.1.3-.2.5-.2s.3.1.5.2v.5zm-.5 10.3c-.1.1-.3.2-.5.2s-.3-.1-.5-.2c-.1-.1-.2-.3-.2-.5s.1-.3.2-.5c.1-.1.3-.2.5-.2s.3.1.5.2c.1.1.2.3.2.5s-.1.4-.2.5zm-2.1-5c-.1.1-.3.2-.5.2s-.3-.1-.5-.2c-.1-.1-.2-.3-.2-.5s.1-.3.2-.4c.1-.2.3-.2.5-.2s.3.1.5.2c.1.1.2.3.2.5 0 .1-.1.2-.2.4zm1.2 2.5c-.1.2-.3.2-.5.2s-.3 0-.5-.1c-.1-.2-.2-.3-.2-.5s.1-.3.2-.5c.1-.1.3-.2.5-.2s.3.1.5.2c.1.1.2.3.2.4 0 .2-.1.3-.2.5zm1.3 5.5c-.2.1-.3.2-.5.2s-.3-.1-.5-.2c-.1-.1-.2-.3-.2-.5s.1-.3.2-.5c.1-.1.3-.2.5-.2s.3.1.5.2c.1.1.2.3.2.5-.1.2-.1.4-.2.5zm-5.7 1.8c-.2 0-.3-.1-.4-.2-.1-.1-.2-.3-.2-.5s.1-.3.2-.5c.1-.1.3-.2.4-.2.2 0 .3 0 .5.1.1.2.2.3.2.5s-.1.3-.2.5c-.2.3-.3.3-.5.3zm-.9 2.6c-.2 0-.3 0-.5-.2-.1-.1-.2-.3-.2-.4 0-.2.1-.3.2-.5.1-.1.3-.2.4-.2.2 0 .4.1.5.2.1.1.2.3.2.5s-.1.3-.2.4c-.1.2-.2.2-.4.2zm-1.2 2.5c-.2 0-.3-.1-.5-.2-.1-.1-.2-.3-.2-.5s.1-.3.2-.5c.1-.1.3-.2.5-.2s.3.1.5.2c.1.1.2.3.2.5s-.1.3-.2.5c-.1.1-.3.2-.5.2z" fill="none" stroke="#666" stroke-width=".75" stroke-linecap="round" stroke-linejoin="round"/></svg>