<svg xmlns="http://www.w3.org/2000/svg" width="42" height="42"><path d="M22.9 21c0-.5-.2-1-.5-1.4-.4-.4-.9-.6-1.4-.6-.6 0-1.1.2-1.4.6-.4.4-.6.9-.6 1.4 0 .6.2 1 .6 1.4.4.4.9.6 1.4.6.5 0 1-.2 1.4-.6.4-.4.5-.8.5-1.4z" fill="#666"/><path d="M40 21c0 5.2-1.9 9.7-5.6 13.4C30.7 38.1 26.2 40 21 40c-5.2 0-9.7-1.9-13.4-5.6C3.9 30.7 2 26.2 2 21c0-5.2 1.9-9.7 5.6-13.4C11.3 3.9 15.8 2 21 2c5.2 0 9.7 1.9 13.4 5.6C38.1 11.3 40 15.8 40 21z" fill="none" stroke="#666" stroke-width="2.5" stroke-linecap="round" stroke-linejoin="round"/><path d="M33.6 13.8l-8.9 5.1m11 2.3H25.2m8.4 7.4l-9.1-5.3m-7.4-4.2L8 13.8m8.7 7.4H6.1m11.2 2l-9.2 5.3m12.8-3.2v10.6m-2-11.2L13.5 34m14.8-.1L23 24.8m-4.3-7.4l-5.2-8.9m7.4-2.1v10.3m7.4-8.3l-5.1 8.9" fill="none" stroke="#666" stroke-width="1.5" stroke-linecap="round" stroke-linejoin="round"/></svg>