<svg xmlns="http://www.w3.org/2000/svg" width="42" height="42"><path d="M21.6 19c4.6-3.6 9-6.5 13.4-8.9 1.7-.8 2.9-.7 3.7.2 1.9 2.1 1.8 3.3-.5 3.5h-.6c-3.5.3-6.5 1.6-9 3.8.8.7 1.2 2.5 1 5.4v2.7l1.9-1.1c1.5-1.2 2.1-2.3 1.8-3.4-.3-1.2.5-1.7 2.4-1.7 2.1 0 3.4.9 3.8 2.8.1.7-.3 1.3-1.2 1.8l-8.6 4.4v1c-8.3 4.3-15 3.7-20.3-1.9L9 26.3l-4 1.2c-.4.2-.9.1-1.4 0-.4-.2-.7-.5-.9-.9l-.5-1.3c-.2-.3-.2-.8-.1-1.2.2-.4.5-.7.9-.9l4.3-1.6-.3-.9c4.2-3.2 8.4-4.7 12.4-4.6v-2h8.3M7.4 21.6l1.5 4.9m15.5-2.4c0 1.4-.5 2.6-1.5 3.7-1 1-2.2 1.5-3.7 1.5-1.4 0-2.6-.5-3.7-1.5-1-1-1.4-2.2-1.4-3.7s.5-2.6 1.4-3.7c1-1 2.2-1.5 3.7-1.5.8 0 1.6.2 2.3.5.5.2.9.6 1.4 1 .7.7 1.1 1.5 1.4 2.4.1.5.1.9.1 1.3zm5.3 4.5v-2.8m-5-3c1.1-2.1 2.4-3.8 3.9-5.2" fill="none" stroke="#666" stroke-width="2" stroke-linecap="round" stroke-linejoin="round"/></svg>