<svg xmlns="http://www.w3.org/2000/svg" width="48" height="48"><path fill="#666" d="M37.81 4c.917 0 1.699.323 2.344.968.646.646.969 1.427.969 2.344v13.794H45a2 2 0 012 2v.756a2 2 0 01-2 2h-3.877v13.98a3.19 3.19 0 01-.969 2.344 3.193 3.193 0 01-2.344.968 3.193 3.193 0 01-2.344-.968 3.193 3.193 0 01-.968-2.344v-1.614H19.974v1.614c0 .917-.323 1.699-.968 2.344a3.193 3.193 0 01-2.344.968 3.193 3.193 0 01-2.344-.968 3.193 3.193 0 01-.969-2.344v-4.586h-.424c-1.36 0-2.52-.482-3.483-1.444-.928-.929-1.41-2.044-1.443-3.347v-4.722H3a2 2 0 01-2-2v-.756a2 2 0 012-2h4.999v-4.332c0-1.359.48-2.52 1.443-3.482.963-.963 2.124-1.444 3.483-1.444h.424V7.312c0-.917.323-1.698.969-2.344A3.193 3.193 0 0116.662 4c.917 0 1.698.323 2.344.968.645.646.968 1.427.968 2.344v1.614h14.524V7.312c0-.917.323-1.698.968-2.344A3.193 3.193 0 0137.81 4zM16.662 5.852c-.43 0-.793.164-1.087.492-.295.317-.442.708-.442 1.172v32.14c0 .463.147.854.442 1.171a1.4 1.4 0 001.087.493c.419 0 .781-.164 1.087-.493.294-.317.442-.708.442-1.172V7.516c0-.464-.148-.855-.442-1.172-.306-.328-.668-.492-1.087-.492zm21.2 0c-.431 0-.794.164-1.088.492-.294.317-.442.708-.442 1.172v32.14c0 .463.148.854.442 1.171.294.329.657.493 1.087.493.42 0 .782-.164 1.087-.493.295-.317.442-.708.442-1.172V7.516c0-.464-.147-.855-.442-1.172-.305-.328-.668-.492-1.087-.492zm-3.364 5.079H19.974v25.31h14.524V10.93zM13.349 13.53h-.356c-.884 0-1.642.317-2.277.95-.622.624-.934 1.382-.934 2.277v13.521c0 .895.312 1.654.934 2.277.635.634 1.393.95 2.277.95h.356V13.53zm31.205 9.121h-3.431v1.665h3.43a.832.832 0 100-1.665zM7.999 22.5h-4.57a.832.832 0 000 1.665H8V22.5z"/></svg>