<svg xmlns="http://www.w3.org/2000/svg" width="42" height="42"><path d="M12.7 3.4c-.4-.3-.8-.3-1.3-.2-.5.2-.8.4-1 .9-.3.4-.3.9-.2 1.3 0 .2.1.3.2.5-.6.3-1.2.8-1.7 1.3-.2-.2-.3-.3-.5-.4-.4-.3-.8-.4-1.3-.3-.4.2-.7.5-1 .9-.3.4-.3.9-.2 1.3.1.4.4.7.7 1-.5.6-1 1.2-1.3 1.9-.4-.2-.9-.3-1.3-.2-.4.2-.8.5-1 .9-.2.4-.3.8-.2 1.2.1.5.4.9.9 1.1.1.1.2.1.3.1-.5.8-.7 1.5-.8 2.3-.3-.1-.5-.1-.7 0-.5.2-.8.4-1 .9-.3.4-.4.8-.3 1.2.1.5.4.9.8 1.1.2.1.5.2.7.2v2c-.4.2-.8.5-1 .9-.3.4-.3.8-.2 1.2.1.5.4.9.8 1.1.3.2.7.2 1 .2.2.8.5 1.5.9 2.3-.3.1-.4.3-.6.6-.3.4-.3.9-.2 1.2.2.7.4 1.1.8 1.4.4.2.9.3 1.3.1h.4c.4.6.9 1.3 1.4 1.9-.1.1-.2.3-.3.5-.3.4-.3.8-.2 1.2.2.5.4.9.9 1.1.4.3.9.3 1.3.2.4-.1.7-.3 1-.6.5.4 1.1.9 1.8 1.2-.3.4-.3.8-.2 1.2.1.5.3.9.8 1.1.4.3.9.3 1.3.2.5-.1.8-.3 1.1-.8 0-.1.1-.1.1-.1.7.3 1.5.5 2.2.6 0 .5.2.9.5 1.2.3.3.8.5 1.2.5.5 0 .9-.2 1.2-.5.2-.3.4-.5.5-.9h2.3c.1.3.2.7.4.9.3.3.8.5 1.3.5s.9-.2 1.2-.5c.3-.3.5-.7.5-1.2v-.2c.8-.3 1.6-.5 2.4-.9l.1.1c.3.5.6.7 1.1.8.5.1.9.1 1.3-.1.4-.3.7-.6.8-1.1.1-.4 0-.8-.2-1.2l-.1-.1c.7-.5 1.3-1 2-1.6.2.2.5.4.9.4.4.2.9.1 1.3-.1.4-.3.7-.6.9-1.1.1-.4 0-.8-.2-1.3-.1-.2-.2-.4-.4-.5.5-.7 1-1.3 1.4-2h.2c.4.2.9.1 1.3-.1.4-.3.7-.6.8-1.1.1-.4 0-.8-.2-1.3-.2-.3-.4-.5-.7-.6.2-.7.4-1.4.5-2 .3 0 .6-.1 1-.3.4-.2.7-.6.9-1.1.1-.4 0-.8-.2-1.2-.3-.4-.6-.7-1.1-.9h-.1v-.4c0-.8 0-1.5-.1-2.2.1-.1.3-.2.4-.2.4-.2.7-.6.8-1.1.1-.4.1-.8-.2-1.2-.3-.4-.6-.7-1-.9-.2-.1-.5-.1-.7 0-.2-.8-.5-1.6-.9-2.3.4-.3.7-.6.8-1.1.1-.4.1-.8-.2-1.3-.3-.4-.6-.7-1-.9-.5-.1-.9-.1-1.3.2l-1.2-1.5c-.1-.4 0-.7 0-1.1.1-.4.1-.8-.2-1.3-.3-.4-.6-.7-1-.9-.4-.1-.8 0-1.3.2-.2.1-.3.2-.5.4-.5-.3-1.1-.7-1.6-1 .1-.1.1-.3.1-.5.1-.4.1-.8-.2-1.2-.3-.4-.6-.7-1-.9-.5-.1-.9 0-1.3.2s-.6.5-.8.9c-.8-.3-1.6-.5-2.4-.6 0-.4-.2-.8-.5-1.1-.3-.3-.7-.5-1.2-.5s-.9.2-1.2.5c-.2.2-.4.5-.4.8h-.4c-.7 0-1.4 0-2 .1-.1-.3-.3-.6-.5-.9-.3-.3-.7-.5-1.2-.5s-.9.2-1.3.5c-.3.3-.5.8-.5 1.2v.3c-.8.2-1.5.5-2.2.8-.3-.3-.6-.5-.8-.7M21 6.1c4.1 0 7.6 1.4 10.5 4.3 2.9 2.9 4.4 6.4 4.4 10.5s-1.5 7.6-4.4 10.5c-2.9 2.9-6.4 4.4-10.5 4.4s-7.6-1.5-10.5-4.4C7.6 28.5 6.2 25 6.2 20.9s1.4-7.6 4.3-10.5c2.9-2.9 6.4-4.3 10.5-4.3z" fill="#666"/><path d="M35.9 20.9c0 4.1-1.5 7.6-4.4 10.5-2.9 2.9-6.4 4.4-10.5 4.4s-7.6-1.5-10.5-4.4C7.6 28.5 6.2 25 6.2 20.9s1.4-7.6 4.3-10.5c2.9-2.9 6.4-4.3 10.5-4.3s7.6 1.4 10.5 4.3c2.9 2.9 4.4 6.4 4.4 10.5z" fill="none" stroke="#666" stroke-width="2.5" stroke-linecap="round" stroke-linejoin="round"/></svg>