<svg xmlns="http://www.w3.org/2000/svg" width="42" height="42"><path class="st0" fill="none" stroke="#666" stroke-width="2" stroke-linecap="round" stroke-linejoin="round" d="M7.2 12.75l-.5-.5c-1.1-1.2-1.7-2.6-1.8-4.2-.1-1.7.5-3.2 1.6-4.4 1.2-1.2 2.6-1.8 4.4-1.7h.1c6.8 1.1 13 1.3 18.6.5h.2c.9-.1 1.7.2 2.4.9 3.2 3.6 4.1 8.4 2.6 14.5-1 4.2-.6 7.8 1.2 10.9 0 .1.1.1.1.2.5.9.7 1.9.8 2.9 0 1.1-.3 2.2-.8 3-1 2.1-1 3.8 0 5.1-4.3-.3-7.5-1.8-9.5-4.7-.3-.4-.6-.9-.8-1.4-.2-.3-.3-.6-.4-1v-.2c-1.2-5.3-.8-11.8 1.3-19.5.1-.3.2-.7.3-1v-.6c0-1.1-.4-2.1-1.2-2.9-.8-.8-1.7-1.2-2.9-1.2-1.1 0-2.1.4-2.9 1.2-.3.3-.5.6-.7 1-.1.2-.2.3-.2.5-.8 1.8-1.4 3.7-2 5.7 0 .2 0 .5-.1.6-.1.2-.3.5-.5.6-.4.4-.9.6-1.5.6-.4 0-.7-.1-1-.2-.2-.1-.3-.2-.5-.3-1.7-1.2-3.4-2.4-5.2-3.7-.1-.1-.2-.1-.4-.2s-.4-.3-.7-.5c.4.3.7.5 1.1.8"/><path class="st1" fill="none" stroke="#666" stroke-width="1.5" stroke-linecap="round" stroke-linejoin="round" d="M14.5 8.15c0 .8-.3 1.5-.8 2.1-.6.6-1.3.9-2.1.9s-1.5-.3-2.1-.9c-.6-.6-.9-1.3-.9-2.1s.3-1.6.9-2.1c.6-.5 1.3-.8 2.1-.8s1.6.3 2.1.8c.5.6.8 1.3.8 2.1zm19.6 23.3c0 .8-.3 1.6-.9 2.1-.6.6-1.3.9-2.1.9s-1.5-.3-2.1-.8c-.6-.6-.9-1.3-.9-2.1s.3-1.5.9-2.1c.6-.5 1.3-.8 2.1-.8s1.5.3 2.1.8c.6.5.9 1.2.9 2z"/></svg>