<svg xmlns="http://www.w3.org/2000/svg" width="42" height="42"><path d="M16.6 11.1c-.2-.6-.4-1.2-.4-1.9 0-1.3.5-2.5 1.4-3.4.9-.9 2.1-1.4 3.4-1.4 1.3 0 2.5.5 3.4 1.4.9.9 1.4 2.1 1.4 3.4 0 .7-.1 1.3-.3 1.9h7.7L40 37.6H2l7-26.5h7.6c.2.6.6 1.1 1 1.6.9.9 2.1 1.4 3.4 1.4 1.3 0 2.5-.5 3.4-1.4.5-.5.8-1 1.1-1.6m-11.2 9.4V26l2.1-2.1 3.3-3.3m.3 8.1l-3.7-4.9m-2 2.2v2.4m14-3.7v2.2c-.7.7-1.5 1.1-2.5 1.1s-1.9-.4-2.6-1.1c-.7-.7-1-1.5-1-2.5s.3-1.8 1-2.5 1.6-1 2.6-1c.9 0 1.7.3 2.4.9" fill="none" stroke="#666" stroke-width="2" stroke-linecap="round" stroke-linejoin="round"/></svg>